PathFileType	4	(X/Y/Z)	D:\TRACE\spotREDO_2-26-24\spot_Both_Motion_1_7-platform.trc
DataRate	CameraRate	NumFrames	NumMarkers	Units	OrigDataRate	OrigDataStartFrame	OrigNumFrames
100.00	100.00	      55	5	mm	100.00	2626	      7000
Frame#	Time	Left_Front			Right_Front			Left_Aft			Right_Aft			Post			
		X1	Y1	Z1	X2	Y2	Z2	X3	Y3	Z3	X4	Y4	Z4	X5	Y5	Z5	

2626	26.250	-744.27777	1.87088	-574.53186	670.86670	9.27922	-489.80588	-815.27814	-1.51814	644.45728	754.96497	5.69112	648.25751	-34.29645	632.08191	-975.51746	
2627	26.260	-743.72418	2.05635	-574.38379	671.09375	9.50028	-489.65149	-814.96313	-1.62368	644.43256	755.48364	5.43041	648.30103	-33.84838	632.47357	-975.11865	
2628	26.270	-743.42926	2.23674	-574.33832	671.51599	9.83781	-489.66714	-814.30695	-2.06138	644.64771	755.80682	5.14678	648.35065	-33.37937	632.87006	-974.86963	
2629	26.280	-743.06128	2.65482	-574.31818	672.04510	9.96437	-489.65216	-814.10510	-2.37227	644.52905	756.33063	4.79057	648.61414	-32.94610	633.39941	-974.75494	
2630	26.290	-742.56348	3.13948	-574.06494	672.79974	10.31534	-489.20770	-813.49731	-2.95543	644.76050	756.73676	4.40960	648.73157	-32.53276	634.02222	-974.39764	
2631	26.300	-742.24323	3.66969	-574.15265	673.17365	10.60557	-489.23373	-813.12299	-3.24250	644.89050	757.08136	4.12146	648.79498	-31.56897	634.76514	-973.71918	
2632	26.310	-741.55841	3.59218	-574.01483	673.42584	10.81114	-489.12964	-812.83032	-3.48443	644.90662	757.75031	3.59112	648.72009	-31.40600	635.18799	-973.35712	
2633	26.320	-741.14783	3.93005	-573.89435	673.75830	11.08450	-489.09055	-812.31299	-4.04946	645.05396	758.24255	3.23105	648.79578	-30.87231	635.75140	-972.71387	
2634	26.330	-740.80615	4.20249	-573.84619	674.36743	11.45679	-488.97641	-811.95245	-4.35898	645.12640	758.29602	2.86965	648.88086	-30.32332	636.47351	-972.06268	
2635	26.340	-740.15826	4.34496	-573.70807	674.76117	11.87362	-489.01865	-811.31891	-4.74224	645.28131	758.81177	2.45193	648.97437	-29.71461	637.09192	-971.43152	
2636	26.350	-739.69812	4.85194	-573.49884	675.28809	12.22595	-488.78946	-810.80756	-5.08931	645.36981	759.48718	2.03185	649.00677	-30.10330	637.71777	-970.97296	
2637	26.360	-739.22760	5.52423	-573.49786	675.86877	12.43964	-488.68338	-810.29547	-5.33626	645.38611	759.77136	1.88662	649.23083	-29.56703	638.46436	-970.33759	
2638	26.370	-738.75787	5.73860	-573.27289	676.32800	12.83922	-488.69049	-809.82062	-5.80321	645.59119	760.41669	1.29393	649.48279	-28.84844	639.01379	-969.39996	
2639	26.380	-738.04358	5.63562	-573.12952	676.97351	12.99560	-488.61328	-809.42480	-6.22446	645.66656	760.73645	0.99708	649.57941	-28.60666	639.29797	-969.01355	
2640	26.390	-737.56586	5.88046	-573.20728	677.35632	13.15836	-488.53424	-808.76666	-6.66841	645.70483	761.08179	0.69483	649.66705	-28.39421	639.80530	-968.77814	
2641	26.400	-736.92175	6.54384	-573.07117	677.77856	13.67937	-488.49551	-808.26154	-6.83890	645.69305	761.81866	0.46330	649.73779	-27.73805	640.42657	-968.54871	
2642	26.410	-736.56848	6.78839	-572.96564	678.27606	13.96877	-488.34485	-807.58813	-6.89127	645.65778	762.68152	0.37592	649.73846	-27.09746	640.99121	-968.44586	
2643	26.420	-735.87762	7.27444	-572.94476	679.16772	14.19146	-488.29956	-807.05695	-7.14883	645.79395	763.28046	0.16246	649.75562	-26.47491	641.36102	-968.20447	
2644	26.430	-735.16510	7.32891	-572.90546	679.67566	14.33899	-488.40442	-806.40253	-7.52316	645.84351	763.87787	-0.15993	649.91534	-25.36450	641.59369	-967.80853	
2645	26.440	-734.88574	7.65559	-572.80566	680.11267	14.46125	-488.25137	-805.80493	-7.91656	646.03986	764.32507	-0.60145	649.98145	-24.08925	641.92157	-967.97119	
2646	26.450	-734.08929	7.76993	-572.53912	680.76678	14.66224	-488.07178	-805.10028	-8.33182	646.07751	765.08594	-0.92476	650.04156	-23.55419	642.38074	-967.61761	
2647	26.460	-733.58319	8.08090	-572.40131	681.57098	15.15373	-488.04486	-804.51617	-8.42595	646.16815	765.54016	-1.08079	650.12122	-23.05694	642.97852	-967.32245	
2648	26.470	-732.73358	8.34946	-572.39807	682.50726	15.17356	-487.71667	-803.90564	-8.63416	646.29474	766.26202	-1.34331	650.26532	-22.21648	643.37878	-966.71960	
2649	26.480	-732.02930	8.59595	-572.37592	682.84424	15.41156	-487.67780	-803.31445	-8.95052	646.34332	766.98279	-1.63834	650.36365	-20.87020	643.85962	-965.53516	
2650	26.490	-731.51727	8.93313	-572.34320	683.37207	15.91407	-487.77551	-802.65570	-9.46033	646.47888	767.68073	-2.01123	650.37244	-21.28678	644.42084	-965.67627	
2651	26.500	-730.92346	9.31529	-572.35114	684.04260	16.17311	-487.81384	-801.86902	-9.82897	646.56494	768.04755	-2.45752	650.13245	-20.86280	644.95569	-965.00537	
2652	26.510	-730.12360	9.73345	-572.28644	684.87988	16.46881	-487.56497	-801.32068	-9.94965	646.52545	768.81696	-2.80297	650.30914	-19.74699	645.57043	-963.96350	
2653	26.520	-729.29419	10.03742	-572.02423	685.48633	16.77908	-487.43781	-800.51617	-10.15935	646.68829	769.51678	-3.08234	650.47369	-19.54135	646.06744	-964.04309	
2654	26.530	-728.80865	10.18176	-571.97028	686.20032	16.87541	-487.34753	-800.08875	-10.20388	646.66992	770.41412	-3.53372	650.90448	-18.90734	646.55774	-963.62952	
2655	26.540	-727.73218	10.43239	-571.85065	686.80463	17.30357	-487.45786	-798.97650	-11.02210	646.85266	771.12085	-3.78958	650.93591	-18.09978	647.20917	-963.03229	
2656	26.550	-727.34784	10.68883	-571.90326	687.25653	17.76709	-487.66959	-798.34918	-11.36103	646.77094	771.70013	-3.95590	650.83594	-17.30600	647.70349	-962.57349	
2657	26.560	-726.41296	10.93449	-571.84259	688.14148	17.71370	-487.54611	-797.65375	-11.46170	646.96344	772.55420	-4.23487	650.87775	-17.03396	648.05585	-962.72058	
2658	26.570	-725.57672	11.33831	-571.75861	688.97308	17.94091	-487.41367	-797.09229	-11.90203	646.82703	773.15228	-4.44069	650.92175	-15.90304	648.47046	-962.40070	
2659	26.580	-724.96942	11.64598	-571.63257	689.52698	18.17344	-487.21530	-796.43066	-11.97568	646.73224	774.05908	-4.63049	651.03046	-15.41199	648.87372	-962.13135	
2660	26.590	-724.17712	11.67564	-571.45892	690.43317	18.43371	-487.17593	-795.26959	-12.41096	646.99298	774.92578	-4.79856	651.10858	-14.27542	649.36877	-961.47192	
2661	26.600	-723.39960	11.82511	-571.47333	691.53943	18.64597	-486.97760	-794.55554	-12.61977	646.99786	775.69824	-4.76637	651.12506	-13.94110	649.73596	-961.44006	
2662	26.610	-722.43152	12.04519	-571.46381	692.22156	18.82103	-486.89642	-793.75067	-12.64226	647.16266	776.48663	-5.26591	651.09680	-13.00709	650.07513	-961.10291	
2663	26.620	-721.52844	12.34044	-571.30194	693.10352	18.89312	-486.81680	-792.89905	-12.95157	647.22687	777.39679	-5.60225	651.17267	-12.12555	650.45233	-960.89471	
2664	26.630	-720.96759	12.66870	-571.20367	694.00507	19.09359	-486.67175	-792.21594	-13.29037	647.25452	778.15277	-5.92257	651.32208	-10.85714	650.88184	-960.19153	
2665	26.640	-720.01868	13.09892	-571.27014	694.64984	19.60626	-486.66553	-791.27765	-13.74753	647.40350	778.86169	-5.99276	651.38745	-10.55594	651.27008	-960.25073	
2666	26.650	-719.33679	13.10283	-570.97998	695.42505	19.80306	-486.56943	-790.46912	-13.88276	647.45264	780.02563	-6.50317	651.45862	-9.79560	651.97925	-959.72443	
2667	26.660	-718.43097	13.33582	-570.93341	696.07788	20.11796	-486.53268	-789.66315	-14.28164	647.52557	780.55151	-6.63106	651.53168	-9.15149	652.39752	-959.37225	
2668	26.670	-717.71277	13.73776	-570.95093	697.01611	20.16728	-486.30725	-789.05530	-14.50206	647.58368	781.28381	-7.04888	651.35834	-7.90553	652.58130	-958.51514	
2669	26.680	-716.81390	14.12624	-570.85101	698.15649	20.25094	-486.29355	-788.18414	-14.72607	647.52435	782.27094	-7.42479	651.33856	-7.27008	653.17444	-958.40173	
2670	26.690	-715.85553	14.27028	-570.67395	699.13379	20.61247	-486.04410	-787.00623	-14.99736	647.74689	783.07410	-7.66093	651.46924	-6.41946	653.75659	-958.02875	
2671	26.700	-715.03357	14.67709	-570.61053	699.64044	20.91448	-486.03174	-786.09875	-15.36482	647.79138	784.05939	-7.69574	651.66547	-5.52885	654.12457	-957.55920	
2672	26.710	-714.18835	14.70801	-570.66711	700.86542	20.93918	-485.94965	-785.26978	-15.43354	647.82196	784.95483	-7.88799	651.80383	-4.76434	654.62146	-957.13019	
2673	26.720	-713.38190	15.05290	-570.42993	701.44391	21.12786	-486.01947	-784.58276	-15.61324	647.85760	785.82080	-8.05318	651.88904	-4.00311	654.79846	-956.73755	
2674	26.730	-712.52930	15.20281	-570.35938	702.36615	21.40173	-485.86768	-783.66357	-15.81044	647.90161	786.56262	-8.41067	651.95520	-3.00820	654.99756	-956.61383	
2675	26.740	-711.44495	15.45893	-570.36157	703.30298	21.58110	-486.08099	-782.29071	-15.89776	648.02142	787.49817	-8.59597	651.98730	-1.99867	655.39215	-956.37927	
2676	26.750	-710.54321	15.60000	-570.36084	704.03510	21.97221	-486.01788	-781.71515	-16.27270	648.05054	788.32776	-8.59008	652.05273	-1.03890	655.76300	-956.05676	
2677	26.760	-709.87561	15.98490	-570.27179	705.14905	22.07894	-485.88126	-780.86829	-16.55367	648.12842	789.45081	-8.84065	652.19537	-0.25132	656.06818	-956.03857	
2678	26.770	-708.83087	16.08149	-570.35004	705.92487	22.29902	-485.83801	-780.08917	-16.79213	648.05902	790.20526	-9.12465	652.26965	0.72416	656.26898	-956.00317	
2679	26.780	-707.93781	16.06417	-570.16699	706.85211	22.45277	-485.77527	-779.03436	-16.80679	648.18701	791.01630	-9.34949	652.28821	1.79336	656.73975	-955.74561	
2680	26.790	-706.96741	16.38037	-570.11761	707.78003	22.56971	-485.83347	-778.22473	-17.00842	648.23615	792.13361	-9.43654	652.30457	2.32096	657.11230	-955.69397	
